# Blender v2.77 (sub 0) OBJ File: 'dajecazzo.blend'
# www.blender.org
o Cube
v -0.65 -0.1 -0.1
v -0.65 -0.1 0.1
v 0.35 -0.1 -0.2
v 0.35 -0.1 -0.1
v 0.35 -0.1 0.1
v 0.35 -0.1 0.2
v 0.65 -0.1 0

v -0.65 0.1 -0.1
v -0.65 0.1 0.1
v 0.35 0.1 -0.2
v 0.35 0.1 -0.1
v 0.35 0.1 0.1
v 0.35 0.1 0.2
v 0.65 0.1 0

vt 0 0

vn 0 1 0
vn 0 -1 0
vn 0 0 1
vn 0 0 -1
vn -1 0 0
vn 1 0 1
vn 1 0 -1

#down
f 1/1/2 4/1/1 2/1/2 
f 4/1/2 5/1/1 2/1/2
f 3/1/2 7/1/1 6/1/2


#up
f 9/1/1 11/1/1 8/1/1 
f 9/1/1 12/1/1 11/1/1
f 13/1/1 14/1/1 10/1/1

#sidePositiveLong
f 2/1/3 12/1/3 9/1/3
f 2/1/3 5/1/3 12/1/3
#sideNegativeLong
f 4/1/4 8/1/4 11/1/4
f 4/1/4 1/1/4 8/1/4
#sideBack
f 1/1/5 9/1/5 8/1/5
f 1/1/5 2/1/5 9/1/5
#short1
f 5/1/5 13/1/5 12/1/5
f 5/1/5 6/1/5 13/1/5
#short2
f 3/1/5 11/1/5 10/1/5
f 3/1/5 4/1/5 11/1/5
#head1
f 6/1/6 14/1/6 13/1/6
f 6/1/6 7/1/6 14/1/6
#head2
f 7/1/7 10/1/7 14/1/7
f 7/1/7 3/1/7 10/1/7







