# Blender v2.77 (sub 0) OBJ File: 'dajecazzo.blend'
# www.blender.org
o Cube
v 1.000000 0.032171 -5.019062
v 1.000000 0.032171 4.956921
v -1.000000 0.032171 4.956921
v -1.000000 0.032171 -5.019063
v 1.000000 2.032171 -5.019062
v 0.999999 2.032171 4.956922
v -1.000000 2.032171 4.956921
v -1.000000 2.032171 -5.019062
vt 0.8000 1.0000
vt 0.6000 0.0000
vt 0.8000 0.0000
vt 0.4000 0.0000
vt 0.6000 1.0000
vt 0.4000 1.0000
vt 0.0000 1.0000
vt 0.2000 0.0000
vt 0.2000 1.0000
vt 0.8000 0.4010
vt 1.0000 0.2005
vt 1.0000 0.4010
vt 0.2000 1.0000
vt 0.4000 0.0000
vt 0.4000 1.0000
vt 1.0000 0.0000
vt 0.8000 0.2005
vt 0.8000 0.0000
vt 0.6000 1.0000
vt 0.6000 0.0000
vt 0.0000 0.0000
vt 0.8000 0.2005
vt 0.2000 0.0000
vt 1.0000 0.2005
vn 0.5773 -0.5773 0.5773
vn -0.5773 -0.5773 -0.5773
vn 0.5773 -0.5773 -0.5773
vn 0.5773 0.5773 -0.5773
vn -0.5773 0.5773 0.5773
vn 0.5773 0.5773 0.5773
vn -0.5773 -0.5773 0.5773
vn -0.5773 0.5773 -0.5773
s 1
f 2/1/1 4/2/2 1/3/3
f 5/4/4 7/5/5 6/6/6
f 5/7/4 2/8/1 1/9/3
f 6/10/6 3/11/7 2/12/1
f 7/13/5 4/14/2 3/15/7
f 1/16/3 8/17/8 5/18/4
f 2/1/1 3/19/7 4/2/2
f 5/4/4 8/20/8 7/5/5
f 5/7/4 6/21/6 2/8/1
f 6/10/6 7/22/5 3/11/7
f 7/13/5 8/23/8 4/14/2
f 1/16/3 4/24/2 8/17/8
