# Blender v2.77 (sub 0) OBJ File: 'dajecazzo.blend'
# www.blender.org
o Cube
v 1.389025 0.032171 -1.387371
v 1.389025 0.032171 1.355330
v -1.258499 0.032171 1.355330
v -1.258499 0.032171 -1.387371
v 1.389025 2.032171 -1.387370
v 1.389024 2.032171 1.355330
v -1.258499 2.032171 1.355330
v -1.258499 2.032171 -1.387371
vt 0.8000 0.0000
vt 0.6000 1.0000
vt 0.6000 0.0000
vt 0.6000 0.0000
vt 0.4000 1.0000
vt 0.4000 0.0000
vt 0.0000 1.0000
vt 0.2000 0.0000
vt 0.2000 1.0000
vt 0.8000 0.4010
vt 1.0000 0.2005
vt 1.0000 0.4010
vt 0.4000 1.0000
vt 0.2000 0.0000
vt 0.4000 0.0000
vt 1.0000 0.0000
vt 0.8000 0.2005
vt 0.8000 0.0000
vt 0.8000 1.0000
vt 0.6000 1.0000
vt 0.0000 0.0000
vt 0.8000 0.2005
vt 0.2000 1.0000
vt 1.0000 0.2005
vn 0.5773 -0.5773 -0.5773
vn -0.5773 -0.5773 0.5773
vn -0.5773 -0.5773 -0.5773
vn -0.5773 0.5773 -0.5773
vn 0.5773 0.5773 0.5773
vn 0.5773 0.5773 -0.5773
vn 0.5773 -0.5773 0.5773
vn -0.5773 0.5773 0.5773
s 1
f 1/1/1 3/2/2 4/3/3
f 8/4/4 6/5/5 5/6/6
f 5/7/6 2/8/7 1/9/1
f 6/10/5 3/11/2 2/12/7
f 3/13/2 8/14/4 4/15/3
f 1/16/1 8/17/4 5/18/6
f 1/1/1 2/19/7 3/2/2
f 8/4/4 7/20/8 6/5/5
f 5/7/6 6/21/5 2/8/7
f 6/10/5 7/22/8 3/11/2
f 3/13/2 7/23/8 8/14/4
f 1/16/1 4/24/3 8/17/4
