# Blender v2.77 (sub 0) OBJ File: ''
# www.blender.org
o Cube_Cube.001
v -0.331074 0.114794 1.394991
v -0.331074 0.114794 1.394991
v -0.331074 0.114794 -0.605009
v -0.331074 0.114794 -0.605009
v 1.668926 0.114794 1.394991
v 1.668926 0.114794 1.394991
v 1.668926 0.114794 -0.605009
v 1.668926 1.114794 -0.605009
vt 0 0
vn 1.0000 0.0000 0.0000
vn 0.0000 0.0000 1.0000
vn 0.0000 0.0000 -1.0000
vn 0.0000 -1.0000 0.0000
vn 0.0000 1.0000 0.0000
vn -1.0000 0.0000 0.0000
vn -0.4082 0.8165 0.4082
s off
f 4/1/1 1/1/1 2/1/1
f 4/1/2 7/1/2 3/1/2
f 8/1/1 5/1/1 7/1/1
f 2/1/3 5/1/3 6/1/3
f 3/1/4 5/1/4 1/1/4
f 6/1/5 4/1/5 2/1/5
f 4/1/1 3/1/1 1/1/1
f 4/1/3 8/1/3 7/1/3
f 8/1/6 6/1/6 5/1/6
f 2/1/3 1/1/3 5/1/3
f 3/1/4 7/1/4 5/1/4
f 6/1/7 8/1/7 4/1/7
