# Blender v2.77 (sub 0) OBJ File: ''
# www.blender.org
mtllib slope1.mtl
o Cube
v 0.616423 0.226229 -1.642982
v 0.616423 0.226229 0.357018
v -1.383577 0.226229 0.357017
v -1.383576 0.226229 -1.642983
v 0.616424 0.226229 -1.642982
v 1.016949 0.353190 0.526296
v -1.383577 2.226229 0.357017
v -1.383577 2.226229 -1.642982
vt 0.0329 0.0777
vt 0.4201 0.4649
vt 0.4201 0.0777
vt 0.4201 0.0777
vt 0.0329 0.4649
vt 0.0002 0.0002
vt 0.6586 0.0462
vt 0.7257 0.5896
vt 0.4205 0.3514
vt 0.0002 0.4652
vt 0.3874 0.8524
vt 0.3874 0.4652
vt 0.9998 0.0002
vt 0.9998 0.5477
vt 0.9998 0.0002
vt 0.0329 0.4649
vt 0.4201 0.4649
vt 0.7257 0.0002
vt 0.0002 0.8524
vt 0.7260 0.2740
vn 0.0000 -1.0000 0.0000
vn 0.6143 0.7730 -0.1587
vn -0.0000 0.0000 1.0000
vn -1.0000 -0.0000 -0.0000
vn 0.5774 0.5774 -0.5774
vn 0.7071 0.7071 0.0000
vn 0.3022 -0.9533 0.0000
vn -0.2922 -0.2922 0.9106
vn 0.0000 0.0000 -1.0000
usemtl Material
s off
f 2/1/1 4/2/1 1/3/1
f 5/4/2 7/5/2 6/6/2
f 5/4/1 2/1/1 1/3/1
f 2/7/3 7/8/3 3/9/3
f 7/10/4 4/11/4 3/12/4
f 1/13/5 8/14/5 5/15/5
f 2/1/1 3/16/1 4/2/1
f 5/4/6 8/17/6 7/5/6
f 5/4/7 6/6/7 2/1/7
f 2/7/8 6/18/8 7/8/8
f 7/10/4 8/19/4 4/11/4
f 1/13/9 4/20/9 8/14/9
